<svg height="10" viewBox="0 0 20 20" width="20" xmlns="http://www.w3.org/2000/svg"><path d="m180.846448 2977h-13.693c-.609 0-1.076-.539-.99-1.141l1.143-8c.07-.493.492-.859.99-.859h.703v2c0 .552.448 1 1 1 .553 0 1-.448 1-1v-2h6v2c0 .552.448 1 1 1 .553 0 1-.448 1-1v-2h.704c.498 0 .92.366.99.859l1.143 8c.086.602-.381 1.141-.99 1.141zm-9.847-13c0-1.654 1.346-3 3-3 1.655 0 3 1 3 3v1h-6zm12.98 12.717-1.429-10c-.14-.985-.984-1.717-1.98-1.717h-1.571v-1c0-3-2.243-5-5-5-2.756 0-5 2.243-5 5v1h-1.265c-.995 0-2.145.732-2.286 1.717l-1.428 10c-.172 1.205.763 2.283 1.98 2.283h15.999c1.217 0 2.152-1.078 1.98-2.283z" fill-rule="evenodd" transform="translate(-164 -2959)"/></svg>